<?xml version="1.0" encoding="UTF-8" standalone="no"?>
<!-- Created with Inkscape (http://www.inkscape.org/) -->

<svg
   xmlns:dc="http://purl.org/dc/elements/1.1/"
   xmlns:cc="http://creativecommons.org/ns#"
   xmlns:rdf="http://www.w3.org/1999/02/22-rdf-syntax-ns#"
   xmlns:svg="http://www.w3.org/2000/svg"
   xmlns="http://www.w3.org/2000/svg"
   xmlns:sodipodi="http://sodipodi.sourceforge.net/DTD/sodipodi-0.dtd"
   xmlns:inkscape="http://www.inkscape.org/namespaces/inkscape"
   width="500"
   height="500"
   viewBox="0 0 500.00001 500.00001"
   id="svg4406"
   version="1.1"
   inkscape:version="0.91 r13725"
   sodipodi:docname="Conveyor.svg"
   inkscape:export-filename="/Users/jonathanloov/Dropbox/Teammajim/Knut's/Game/Texture/Objects/ConveyorL.png"
   inkscape:export-xdpi="9"
   inkscape:export-ydpi="9">
  <defs
     id="defs4408" />
  <sodipodi:namedview
     id="base"
     pagecolor="#ffffff"
     bordercolor="#666666"
     borderopacity="1.0"
     inkscape:pageopacity="0.0"
     inkscape:pageshadow="2"
     inkscape:zoom="0.5"
     inkscape:cx="192.34315"
     inkscape:cy="239.36039"
     inkscape:document-units="px"
     inkscape:current-layer="layer1"
     showgrid="false"
     units="px"
     inkscape:object-nodes="true"
     inkscape:snap-smooth-nodes="true"
     inkscape:snap-intersection-paths="true"
     inkscape:object-paths="true"
     inkscape:window-width="1436"
     inkscape:window-height="855"
     inkscape:window-x="4"
     inkscape:window-y="0"
     inkscape:window-maximized="1" />
  <metadata
     id="metadata4411">
    <rdf:RDF>
      <cc:Work
         rdf:about="">
        <dc:format>image/svg+xml</dc:format>
        <dc:type
           rdf:resource="http://purl.org/dc/dcmitype/StillImage" />
        <dc:title></dc:title>
      </cc:Work>
    </rdf:RDF>
  </metadata>
  <g
     inkscape:label="Layer 1"
     inkscape:groupmode="layer"
     id="layer1"
     transform="translate(0,-552.36216)">
    <path
       inkscape:connector-curvature="0"
       style="fill:#002bb6;fill-opacity:1;stroke:none;stroke-width:5;stroke-linecap:butt;stroke-linejoin:miter;stroke-miterlimit:4;stroke-dasharray:none;stroke-dashoffset:0;stroke-opacity:1"
       d="m 0,1052.3622 100,0 c 0,0 -100,-103.24725 -100,-250 l 0,250 z m 0,-250 c 0,-146.75275 100,-250 100,-250 l -100,0 0,250 z m 400,0 c 0,146.75275 100,250 100,250 l 0,-250 0,-250 c 0,0 -100,103.24725 -100,250 z"
       id="rect4418" />
    <path
       id="path4424"
       d="m 300,802.3622 c 0,146.75275 100.00004,250 100.00004,250 l 100,0 c 0,0 -100,-103.24725 -100,-250 0,-146.75275 100,-250 100,-250 l -100,0 c 0,0 -100.00004,103.24725 -100.00004,250 z"
       style="fill:#0000ff;fill-opacity:1;stroke:none;stroke-width:5;stroke-linecap:butt;stroke-linejoin:miter;stroke-miterlimit:4;stroke-dasharray:none;stroke-dashoffset:0;stroke-opacity:1"
       inkscape:connector-curvature="0" />
    <path
       inkscape:connector-curvature="0"
       style="fill:#448bff;fill-opacity:1;stroke:none;stroke-width:5;stroke-linecap:butt;stroke-linejoin:miter;stroke-miterlimit:4;stroke-dasharray:none;stroke-dashoffset:0;stroke-opacity:1"
       d="m 200,802.3622 c 0,146.75275 100.00004,250 100.00004,250 l 100,0 c 0,0 -100,-103.24725 -100,-250 0,-146.75275 100,-250 100,-250 l -100,0 c 0,0 -100.00004,103.24725 -100.00004,250 z"
       id="path4426" />
    <path
       id="path4428"
       d="m 100,802.3622 c 0,146.75275 100.00004,250 100.00004,250 l 100,0 c 0,0 -100,-103.24725 -100,-250 0,-146.75275 100,-250 100,-250 l -100,0 c 0,0 -100.00004,103.24725 -100.00004,250 z"
       style="fill:#0653ff;fill-opacity:1;stroke:none;stroke-width:5;stroke-linecap:butt;stroke-linejoin:miter;stroke-miterlimit:4;stroke-dasharray:none;stroke-dashoffset:0;stroke-opacity:1"
       inkscape:connector-curvature="0" />
    <path
       inkscape:connector-curvature="0"
       style="fill:#004ad5;fill-opacity:1;stroke:none;stroke-width:5;stroke-linecap:butt;stroke-linejoin:miter;stroke-miterlimit:4;stroke-dasharray:none;stroke-dashoffset:0;stroke-opacity:1"
       d="m 0,802.3622 c 0,146.75275 100.00004,250 100.00004,250 l 100,0 c 0,0 -100,-103.24725 -100,-250 0,-146.75275 100,-250 100,-250 l -100,0 c 0,0 -100.00004,103.24725 -100.00004,250 z"
       id="path4430" />
  </g>
</svg>
