<?xml version="1.0" encoding="UTF-8" standalone="no"?>
<!-- Created with Inkscape (http://www.inkscape.org/) -->

<svg
   xmlns:dc="http://purl.org/dc/elements/1.1/"
   xmlns:cc="http://creativecommons.org/ns#"
   xmlns:rdf="http://www.w3.org/1999/02/22-rdf-syntax-ns#"
   xmlns:svg="http://www.w3.org/2000/svg"
   xmlns="http://www.w3.org/2000/svg"
   xmlns:sodipodi="http://sodipodi.sourceforge.net/DTD/sodipodi-0.dtd"
   xmlns:inkscape="http://www.inkscape.org/namespaces/inkscape"
   width="500"
   height="500"
   viewBox="0 0 500.00001 500.00001"
   id="svg4936"
   version="1.1"
   inkscape:version="0.91 r13725"
   sodipodi:docname="KexDoor.svg"
   inkscape:export-filename="/Users/jonathanloov/Dropbox/Teammajim/Knut's/Game/Texture/Objects/KexDoor.png"
   inkscape:export-xdpi="9"
   inkscape:export-ydpi="9">
  <defs
     id="defs4938" />
  <sodipodi:namedview
     id="base"
     pagecolor="#ffffff"
     bordercolor="#666666"
     borderopacity="1.0"
     inkscape:pageopacity="0.0"
     inkscape:pageshadow="2"
     inkscape:zoom="0.70710678"
     inkscape:cx="126.23225"
     inkscape:cy="158.83957"
     inkscape:document-units="px"
     inkscape:current-layer="layer1"
     showgrid="false"
     units="px"
     inkscape:object-nodes="true"
     inkscape:snap-smooth-nodes="true"
     inkscape:object-paths="true"
     inkscape:snap-nodes="false"
     inkscape:window-width="1436"
     inkscape:window-height="855"
     inkscape:window-x="4"
     inkscape:window-y="0"
     inkscape:window-maximized="1" />
  <metadata
     id="metadata4941">
    <rdf:RDF>
      <cc:Work
         rdf:about="">
        <dc:format>image/svg+xml</dc:format>
        <dc:type
           rdf:resource="http://purl.org/dc/dcmitype/StillImage" />
        <dc:title></dc:title>
      </cc:Work>
    </rdf:RDF>
  </metadata>
  <g
     inkscape:label="Layer 1"
     inkscape:groupmode="layer"
     id="layer1"
     transform="translate(0,-552.36216)">
    <path
       style="opacity:1;fill:#b3b3b3;fill-opacity:1;stroke:#000000;stroke-width:5.44122791;stroke-linecap:butt;stroke-linejoin:miter;stroke-miterlimit:4;stroke-dasharray:none;stroke-dashoffset:0;stroke-opacity:1"
       d="m 102.67355,663.63836 0,283.37596 62.92587,0 6.99177,0 154.81762,0 6.99177,0 62.92587,0 0,-283.37596 -69.91764,0 0,45.05559 -154.81762,0 0,-45.05559 -69.91764,0 z m 69.91764,112.63898 154.81762,0 0,103.15359 -154.81762,0 0,-103.15359 z"
       id="rect4948"
       inkscape:connector-curvature="0" />
    <rect
       style="opacity:1;fill:#b3b3b3;fill-opacity:1;stroke:#000000;stroke-width:5.44122791;stroke-linecap:butt;stroke-linejoin:miter;stroke-miterlimit:4;stroke-dasharray:none;stroke-dashoffset:0;stroke-opacity:1"
       id="rect4944"
       width="61.927052"
       height="367.55878"
       x="62.720615"
       y="618.58282" />
    <rect
       y="618.58282"
       x="-437.27939"
       height="367.55878"
       width="61.927052"
       id="rect4958"
       style="opacity:1;fill:#b3b3b3;fill-opacity:1;stroke:#000000;stroke-width:5.44122791;stroke-linecap:butt;stroke-linejoin:miter;stroke-miterlimit:4;stroke-dasharray:none;stroke-dashoffset:0;stroke-opacity:1"
       transform="scale(-1,1)" />
    <rect
       style="opacity:0.481;fill:#000000;fill-opacity:1;stroke:none;stroke-width:5;stroke-linecap:butt;stroke-linejoin:miter;stroke-miterlimit:4;stroke-dasharray:none;stroke-dashoffset:0;stroke-opacity:1"
       id="rect4962"
       width="31.473118"
       height="80.916367"
       x="683.1134"
       y="848.50702"
       transform="matrix(1,0,-0.54990896,0.8352246,0,0)" />
    <rect
       transform="matrix(1,0,-0.54990896,0.8352246,0,0)"
       y="848.50702"
       x="723.1134"
       height="80.916367"
       width="31.473118"
       id="rect5504"
       style="opacity:0.481;fill:#000000;fill-opacity:1;stroke:none;stroke-width:5;stroke-linecap:butt;stroke-linejoin:miter;stroke-miterlimit:4;stroke-dasharray:none;stroke-dashoffset:0;stroke-opacity:1" />
    <rect
       style="opacity:0.481;fill:#000000;fill-opacity:1;stroke:none;stroke-width:5;stroke-linecap:butt;stroke-linejoin:miter;stroke-miterlimit:4;stroke-dasharray:none;stroke-dashoffset:0;stroke-opacity:1"
       id="rect5506"
       width="31.473118"
       height="80.916367"
       x="763.1134"
       y="848.50702"
       transform="matrix(1,0,-0.54990896,0.8352246,0,0)" />
    <rect
       transform="matrix(-1,0,0.54990896,0.8352246,0,0)"
       y="848.50702"
       x="183.11337"
       height="80.916367"
       width="31.473118"
       id="rect5508"
       style="opacity:0.481;fill:#000000;fill-opacity:1;stroke:none;stroke-width:5;stroke-linecap:butt;stroke-linejoin:miter;stroke-miterlimit:4;stroke-dasharray:none;stroke-dashoffset:0;stroke-opacity:1" />
    <rect
       style="opacity:0.481;fill:#000000;fill-opacity:1;stroke:none;stroke-width:5;stroke-linecap:butt;stroke-linejoin:miter;stroke-miterlimit:4;stroke-dasharray:none;stroke-dashoffset:0;stroke-opacity:1"
       id="rect5510"
       width="31.473118"
       height="80.916367"
       x="223.11337"
       y="848.50702"
       transform="matrix(-1,0,0.54990896,0.8352246,0,0)" />
    <rect
       transform="matrix(-1,0,0.54990896,0.8352246,0,0)"
       y="848.50702"
       x="263.11337"
       height="80.916367"
       width="31.473118"
       id="rect5512"
       style="opacity:0.481;fill:#000000;fill-opacity:1;stroke:none;stroke-width:5;stroke-linecap:butt;stroke-linejoin:miter;stroke-miterlimit:4;stroke-dasharray:none;stroke-dashoffset:0;stroke-opacity:1" />
    <path
       style="opacity:1;fill:#ffaa00;fill-opacity:1;stroke:none;stroke-width:5;stroke-linecap:butt;stroke-linejoin:miter;stroke-miterlimit:4;stroke-dasharray:none;stroke-dashoffset:0;stroke-opacity:1"
       d="m 85.546444,654.22452 0,16.27539 16.275396,0 0,-16.27539 -16.275396,0 z m 0,40 0,16.27539 16.275396,0 0,-16.27539 -16.275396,0 z m 0,40 0,16.27539 16.275396,0 0,-16.27539 -16.275396,0 z m 0,40 0,16.27539 16.275396,0 0,-16.27539 -16.275396,0 z m 0,40 0,16.27539 16.275396,0 0,-16.27539 -16.275396,0 z m 0,40 0,16.27539 16.275396,0 0,-16.27539 -16.275396,0 z m 0,40 0,16.27539 16.275396,0 0,-16.27539 -16.275396,0 z m 0,40 0,16.27539 16.275396,0 0,-16.27539 -16.275396,0 z"
       id="rect5516"
       inkscape:connector-curvature="0" />
    <path
       inkscape:connector-curvature="0"
       id="path5535"
       d="m 398.17817,654.22452 0,16.27539 16.27539,0 0,-16.27539 -16.27539,0 z m 0,40 0,16.27539 16.27539,0 0,-16.27539 -16.27539,0 z m 0,40 0,16.27539 16.27539,0 0,-16.27539 -16.27539,0 z m 0,40 0,16.27539 16.27539,0 0,-16.27539 -16.27539,0 z m 0,40 0,16.27539 16.27539,0 0,-16.27539 -16.27539,0 z m 0,40 0,16.27539 16.27539,0 0,-16.27539 -16.27539,0 z m 0,40 0,16.27539 16.27539,0 0,-16.27539 -16.27539,0 z m 0,40 0,16.27539 16.27539,0 0,-16.27539 -16.27539,0 z"
       style="opacity:1;fill:#ffaa00;fill-opacity:1;stroke:none;stroke-width:5;stroke-linecap:butt;stroke-linejoin:miter;stroke-miterlimit:4;stroke-dasharray:none;stroke-dashoffset:0;stroke-opacity:1" />
    <path
       sodipodi:type="star"
       style="opacity:1;fill:#00ff00;fill-opacity:1;stroke:none;stroke-width:5;stroke-linecap:butt;stroke-linejoin:miter;stroke-miterlimit:4;stroke-dasharray:none;stroke-dashoffset:0;stroke-opacity:1"
       id="path5554"
       sodipodi:sides="5"
       sodipodi:cx="250"
       sodipodi:cy="912.36218"
       sodipodi:r1="28"
       sodipodi:r2="11.2"
       sodipodi:arg1="-1.5707963"
       sodipodi:arg2="-0.9424778"
       inkscape:flatsided="false"
       inkscape:rounded="0"
       inkscape:randomized="0"
       d="m 250,884.36218 6.58319,18.93901 20.04639,0.40852 -15.97775,12.11346 5.80616,19.19149 L 250,923.56218 l -16.45799,11.45248 5.80616,-19.19149 -15.97775,-12.11346 20.04639,-0.40852 z"
       inkscape:transform-center-y="-2.6737621" />
    <path
       inkscape:transform-center-y="-2.6737621"
       d="m 170,884.36218 6.58319,18.93901 20.04639,0.40852 -15.97775,12.11346 5.80616,19.19149 L 170,923.56218 l -16.45799,11.45248 5.80616,-19.19149 -15.97775,-12.11346 20.04639,-0.40852 z"
       inkscape:randomized="0"
       inkscape:rounded="0"
       inkscape:flatsided="false"
       sodipodi:arg2="-0.9424778"
       sodipodi:arg1="-1.5707963"
       sodipodi:r2="11.2"
       sodipodi:r1="28"
       sodipodi:cy="912.36218"
       sodipodi:cx="170"
       sodipodi:sides="5"
       id="path5556"
       style="opacity:1;fill:#ff0000;fill-opacity:1;stroke:none;stroke-width:5;stroke-linecap:butt;stroke-linejoin:miter;stroke-miterlimit:4;stroke-dasharray:none;stroke-dashoffset:0;stroke-opacity:1"
       sodipodi:type="star" />
    <path
       sodipodi:type="star"
       style="opacity:1;fill:#00ffff;fill-opacity:1;stroke:none;stroke-width:5;stroke-linecap:butt;stroke-linejoin:miter;stroke-miterlimit:4;stroke-dasharray:none;stroke-dashoffset:0;stroke-opacity:1"
       id="path5558"
       sodipodi:sides="5"
       sodipodi:cx="330"
       sodipodi:cy="912.36218"
       sodipodi:r1="28"
       sodipodi:r2="11.2"
       sodipodi:arg1="-1.5707963"
       sodipodi:arg2="-0.9424778"
       inkscape:flatsided="false"
       inkscape:rounded="0"
       inkscape:randomized="0"
       d="m 330,884.36218 6.58319,18.93901 20.04639,0.40852 -15.97775,12.11346 5.80616,19.19149 L 330,923.56218 l -16.45799,11.45248 5.80616,-19.19149 -15.97775,-12.11346 20.04639,-0.40852 z"
       inkscape:transform-center-y="-2.6737621" />
  </g>
</svg>
