<?xml version="1.0" encoding="UTF-8" standalone="no"?>
<!-- Created with Inkscape (http://www.inkscape.org/) -->

<svg
   xmlns:dc="http://purl.org/dc/elements/1.1/"
   xmlns:cc="http://creativecommons.org/ns#"
   xmlns:rdf="http://www.w3.org/1999/02/22-rdf-syntax-ns#"
   xmlns:svg="http://www.w3.org/2000/svg"
   xmlns="http://www.w3.org/2000/svg"
   xmlns:xlink="http://www.w3.org/1999/xlink"
   xmlns:sodipodi="http://sodipodi.sourceforge.net/DTD/sodipodi-0.dtd"
   xmlns:inkscape="http://www.inkscape.org/namespaces/inkscape"
   width="500"
   height="500"
   viewBox="0 0 500.00001 500.00001"
   id="svg4936"
   version="1.1"
   inkscape:version="0.91 r13725"
   sodipodi:docname="KexDoorOpen.svg"
   inkscape:export-filename="/Users/jonathanloov/Dropbox/Teammajim/JKnut/JKnut/Resources/Texture/Objects/KexDoorOpen.png"
   inkscape:export-xdpi="9"
   inkscape:export-ydpi="9">
  <defs
     id="defs4938">
    <linearGradient
       inkscape:collect="always"
       id="linearGradient4455">
      <stop
         style="stop-color:#b3b3b3;stop-opacity:1;"
         offset="0"
         id="stop4457" />
      <stop
         style="stop-color:#dbdbdb;stop-opacity:1"
         offset="1"
         id="stop4459" />
    </linearGradient>
    <linearGradient
       inkscape:collect="always"
       id="linearGradient4445">
      <stop
         style="stop-color:#b3b3b3;stop-opacity:1;"
         offset="0"
         id="stop4447" />
      <stop
         id="stop4453"
         offset="0.41620362"
         style="stop-color:#c8c8c8;stop-opacity:1" />
      <stop
         style="stop-color:#999999;stop-opacity:1"
         offset="1"
         id="stop4449" />
    </linearGradient>
    <radialGradient
       inkscape:collect="always"
       xlink:href="#linearGradient4445"
       id="radialGradient4451"
       cx="250"
       cy="329.96136"
       fx="250"
       fy="329.96136"
       r="150.04678"
       gradientTransform="matrix(1.3524658,0,0,2.3904615,-88.116449,-461.6916)"
       gradientUnits="userSpaceOnUse" />
    <linearGradient
       inkscape:collect="always"
       xlink:href="#linearGradient4455"
       id="linearGradient4461"
       x1="93.684143"
       y1="618.58282"
       x2="93.684143"
       y2="986.1416"
       gradientUnits="userSpaceOnUse" />
    <linearGradient
       inkscape:collect="always"
       xlink:href="#linearGradient4455"
       id="linearGradient4471"
       x1="-406.31586"
       y1="618.58282"
       x2="-406.31586"
       y2="986.1416"
       gradientUnits="userSpaceOnUse" />
  </defs>
  <sodipodi:namedview
     id="base"
     pagecolor="#ffffff"
     bordercolor="#666666"
     borderopacity="1.0"
     inkscape:pageopacity="0.0"
     inkscape:pageshadow="2"
     inkscape:zoom="0.70710678"
     inkscape:cx="97.571608"
     inkscape:cy="229.80934"
     inkscape:document-units="px"
     inkscape:current-layer="layer1"
     showgrid="false"
     units="px"
     inkscape:object-nodes="true"
     inkscape:snap-smooth-nodes="false"
     inkscape:object-paths="false"
     inkscape:snap-nodes="true"
     inkscape:window-width="1436"
     inkscape:window-height="856"
     inkscape:window-x="4"
     inkscape:window-y="0"
     inkscape:window-maximized="1"
     showguides="false"
     inkscape:snap-intersection-paths="true"
     inkscape:snap-midpoints="true" />
  <metadata
     id="metadata4941">
    <rdf:RDF>
      <cc:Work
         rdf:about="">
        <dc:format>image/svg+xml</dc:format>
        <dc:type
           rdf:resource="http://purl.org/dc/dcmitype/StillImage" />
        <dc:title></dc:title>
      </cc:Work>
    </rdf:RDF>
  </metadata>
  <g
     inkscape:label="Layer 1"
     inkscape:groupmode="layer"
     id="layer1"
     transform="translate(0,-552.36216)">
    <path
       style="opacity:1;fill:url(#radialGradient4451);fill-opacity:1;stroke:#000000;stroke-width:5.44122791;stroke-linecap:butt;stroke-linejoin:round;stroke-miterlimit:4;stroke-dasharray:none;stroke-dashoffset:0;stroke-opacity:1"
       d="m 102.67383,111.27539 0,283.37695 62.92578,0 6.99219,0 154.8164,0 6.99219,0 62.92578,0 0,-283.37695 -21.97461,0 -47.36718,45.05664 -0.57618,0 -154.8164,0 -47.94336,-45.05664 z m 69.91797,112.64063 154.8164,0 0,103.15234 -154.8164,0 z"
       transform="translate(0,552.36216)"
       id="rect4948"
       inkscape:connector-curvature="0"
       sodipodi:nodetypes="ccccccccccccccccccc" />
    <path
       style="opacity:1;fill:#808080;fill-opacity:1;stroke:none;stroke-width:5.44122791;stroke-linecap:butt;stroke-linejoin:miter;stroke-miterlimit:4;stroke-dasharray:none;stroke-dashoffset:0;stroke-opacity:1"
       d="M 367.39453 113.99805 L 367.39453 115.08789 L 368.54102 113.99805 L 367.39453 113.99805 z M 376.4375 113.99805 L 367.39453 122.59961 L 367.39453 391.93164 L 394.60547 391.93164 L 394.60547 113.99805 L 376.4375 113.99805 z "
       transform="translate(0,552.36216)"
       id="path3618" />
    <path
       style="opacity:1;fill:#808080;fill-opacity:1;stroke:none;stroke-width:5.44122791;stroke-linecap:butt;stroke-linejoin:miter;stroke-miterlimit:4;stroke-dasharray:none;stroke-dashoffset:0;stroke-opacity:1"
       d="M 105.39453 113.99805 L 105.39453 391.93164 L 132.64844 391.93164 L 132.64844 122.52734 L 123.57227 113.99805 L 105.39453 113.99805 z M 131.51953 113.99805 L 132.64844 115.06055 L 132.64844 113.99805 L 131.51953 113.99805 z "
       transform="translate(0,552.36216)"
       id="rect3608" />
    <rect
       style="opacity:1;fill:url(#linearGradient4461);fill-opacity:1;stroke:#000000;stroke-width:4;stroke-linecap:butt;stroke-linejoin:round;stroke-miterlimit:4;stroke-dasharray:none;stroke-dashoffset:0;stroke-opacity:1"
       id="rect4944"
       width="61.927052"
       height="367.55878"
       x="62.720615"
       y="618.58282" />
    <rect
       y="618.58282"
       x="-437.27939"
       height="367.55878"
       width="61.927052"
       id="rect4958"
       style="opacity:1;fill:url(#linearGradient4471);fill-opacity:1;stroke:#000000;stroke-width:4;stroke-linecap:butt;stroke-linejoin:round;stroke-miterlimit:4;stroke-dasharray:none;stroke-dashoffset:0;stroke-opacity:1"
       transform="scale(-1,1)" />
    <rect
       style="opacity:0.481;fill:#000000;fill-opacity:1;stroke:none;stroke-width:5;stroke-linecap:butt;stroke-linejoin:miter;stroke-miterlimit:4;stroke-dasharray:none;stroke-dashoffset:0;stroke-opacity:1"
       id="rect4962"
       width="31.473118"
       height="80.916367"
       x="683.1134"
       y="848.50702"
       transform="matrix(1,0,-0.54990896,0.8352246,0,0)" />
    <rect
       transform="matrix(1,0,-0.54990896,0.8352246,0,0)"
       y="848.50702"
       x="723.1134"
       height="80.916367"
       width="31.473118"
       id="rect5504"
       style="opacity:0.481;fill:#000000;fill-opacity:1;stroke:none;stroke-width:5;stroke-linecap:butt;stroke-linejoin:miter;stroke-miterlimit:4;stroke-dasharray:none;stroke-dashoffset:0;stroke-opacity:1" />
    <rect
       style="opacity:0.481;fill:#000000;fill-opacity:1;stroke:none;stroke-width:5;stroke-linecap:butt;stroke-linejoin:miter;stroke-miterlimit:4;stroke-dasharray:none;stroke-dashoffset:0;stroke-opacity:1"
       id="rect5506"
       width="31.473118"
       height="80.916367"
       x="763.1134"
       y="848.50702"
       transform="matrix(1,0,-0.54990896,0.8352246,0,0)" />
    <rect
       transform="matrix(-1,0,0.54990896,0.8352246,0,0)"
       y="848.50702"
       x="183.11337"
       height="80.916367"
       width="31.473118"
       id="rect5508"
       style="opacity:0.481;fill:#000000;fill-opacity:1;stroke:none;stroke-width:5;stroke-linecap:butt;stroke-linejoin:miter;stroke-miterlimit:4;stroke-dasharray:none;stroke-dashoffset:0;stroke-opacity:1" />
    <rect
       style="opacity:0.481;fill:#000000;fill-opacity:1;stroke:none;stroke-width:5;stroke-linecap:butt;stroke-linejoin:miter;stroke-miterlimit:4;stroke-dasharray:none;stroke-dashoffset:0;stroke-opacity:1"
       id="rect5510"
       width="31.473118"
       height="80.916367"
       x="223.11337"
       y="848.50702"
       transform="matrix(-1,0,0.54990896,0.8352246,0,0)" />
    <rect
       transform="matrix(-1,0,0.54990896,0.8352246,0,0)"
       y="848.50702"
       x="263.11337"
       height="80.916367"
       width="31.473118"
       id="rect5512"
       style="opacity:0.481;fill:#000000;fill-opacity:1;stroke:none;stroke-width:5;stroke-linecap:butt;stroke-linejoin:miter;stroke-miterlimit:4;stroke-dasharray:none;stroke-dashoffset:0;stroke-opacity:1" />
    <path
       style="opacity:1;fill:#ff6600;fill-opacity:1;stroke:none;stroke-width:5;stroke-linecap:butt;stroke-linejoin:miter;stroke-miterlimit:4;stroke-dasharray:none;stroke-dashoffset:0;stroke-opacity:1"
       d="m 85.546444,654.22452 0,16.27539 16.275396,0 0,-16.27539 -16.275396,0 z m 0,40 0,16.27539 16.275396,0 0,-16.27539 -16.275396,0 z m 0,40 0,16.27539 16.275396,0 0,-16.27539 -16.275396,0 z m 0,40 0,16.27539 16.275396,0 0,-16.27539 -16.275396,0 z m 0,40 0,16.27539 16.275396,0 0,-16.27539 -16.275396,0 z m 0,40 0,16.27539 16.275396,0 0,-16.27539 -16.275396,0 z m 0,40 0,16.27539 16.275396,0 0,-16.27539 -16.275396,0 z m 0,40 0,16.27539 16.275396,0 0,-16.27539 -16.275396,0 z"
       id="rect5516"
       inkscape:connector-curvature="0" />
    <path
       inkscape:connector-curvature="0"
       id="path5535"
       d="m 398.17817,654.22452 0,16.27539 16.27539,0 0,-16.27539 -16.27539,0 z m 0,40 0,16.27539 16.27539,0 0,-16.27539 -16.27539,0 z m 0,40 0,16.27539 16.27539,0 0,-16.27539 -16.27539,0 z m 0,40 0,16.27539 16.27539,0 0,-16.27539 -16.27539,0 z m 0,40 0,16.27539 16.27539,0 0,-16.27539 -16.27539,0 z m 0,40 0,16.27539 16.27539,0 0,-16.27539 -16.27539,0 z m 0,40 0,16.27539 16.27539,0 0,-16.27539 -16.27539,0 z m 0,40 0,16.27539 16.27539,0 0,-16.27539 -16.27539,0 z"
       style="opacity:1;fill:#ffdd55;fill-opacity:1;stroke:none;stroke-width:5;stroke-linecap:butt;stroke-linejoin:miter;stroke-miterlimit:4;stroke-dasharray:none;stroke-dashoffset:0;stroke-opacity:1" />
    <rect
       style="fill:#00ff00;fill-opacity:1;stroke:#000000;stroke-width:2;stroke-linecap:butt;stroke-linejoin:miter;stroke-miterlimit:4;stroke-dasharray:none;stroke-dashoffset:0;stroke-opacity:1"
       id="rect3620"
       width="201"
       height="43"
       x="149.5"
       y="890.86218"
       ry="9.5" />
  </g>
</svg>
