<?xml version="1.0" encoding="UTF-8" standalone="no"?>
<!-- Created with Inkscape (http://www.inkscape.org/) -->

<svg
   xmlns:dc="http://purl.org/dc/elements/1.1/"
   xmlns:cc="http://creativecommons.org/ns#"
   xmlns:rdf="http://www.w3.org/1999/02/22-rdf-syntax-ns#"
   xmlns:svg="http://www.w3.org/2000/svg"
   xmlns="http://www.w3.org/2000/svg"
   xmlns:xlink="http://www.w3.org/1999/xlink"
   xmlns:sodipodi="http://sodipodi.sourceforge.net/DTD/sodipodi-0.dtd"
   xmlns:inkscape="http://www.inkscape.org/namespaces/inkscape"
   width="357.36102"
   height="357.36102"
   viewBox="0 0 357.36101 357.36101"
   id="svg4247"
   version="1.1"
   inkscape:version="0.91 r13725"
   sodipodi:docname="Point.svg"
   inkscape:export-filename="/Users/jonathanloov/Dropbox/Teammajim/Knut's/Game/Texture/Objects/Point.png"
   inkscape:export-xdpi="12.59"
   inkscape:export-ydpi="12.59">
  <defs
     id="defs4249">
    <inkscape:path-effect
       bendpath4="m 89.04,693.80206 0,28.44"
       bendpath3="m 89.04,722.24206 124.21374,0"
       bendpath2="m 213.25374,693.80206 0,28.44"
       bendpath1="m 89.04,693.80206 124.21374,0"
       xx="true"
       yy="true"
       is_visible="true"
       id="path-effect4360"
       effect="envelope" />
    <inkscape:path-effect
       effect="envelope"
       id="path-effect4334"
       is_visible="true"
       yy="true"
       xx="true"
       bendpath1="m 89.04,693.80206 124.21374,0"
       bendpath2="m 213.25374,693.80206 0,28.44"
       bendpath3="m 89.04,722.24206 124.21374,0"
       bendpath4="m 89.04,693.80206 0,28.44" />
    <linearGradient
       inkscape:collect="always"
       id="linearGradient4318">
      <stop
         style="stop-color:#ffc82a;stop-opacity:1;"
         offset="0"
         id="stop4320" />
      <stop
         style="stop-color:#cd9800;stop-opacity:1"
         offset="1"
         id="stop4322" />
    </linearGradient>
    <radialGradient
       inkscape:collect="always"
       xlink:href="#linearGradient4318"
       id="radialGradient4324"
       cx="201.50002"
       cy="761.31238"
       fx="201.50002"
       fy="761.31238"
       r="164"
       gradientTransform="matrix(1.1361384,0.92523553,-1.3361002,1.6405007,990.82593,-622.61445)"
       gradientUnits="userSpaceOnUse" />
  </defs>
  <sodipodi:namedview
     id="base"
     pagecolor="#ffffff"
     bordercolor="#666666"
     borderopacity="1.0"
     inkscape:pageopacity="0.0"
     inkscape:pageshadow="2"
     inkscape:zoom="1.4142136"
     inkscape:cx="120.16334"
     inkscape:cy="126.91615"
     inkscape:document-units="px"
     inkscape:current-layer="g4272"
     showgrid="false"
     units="px"
     inkscape:object-nodes="true"
     inkscape:snap-nodes="false"
     inkscape:window-width="1436"
     inkscape:window-height="855"
     inkscape:window-x="4"
     inkscape:window-y="0"
     inkscape:window-maximized="1"
     inkscape:object-paths="false"
     inkscape:snap-smooth-nodes="true"
     fit-margin-top="0"
     fit-margin-left="0"
     fit-margin-right="0"
     fit-margin-bottom="0" />
  <metadata
     id="metadata4252">
    <rdf:RDF>
      <cc:Work
         rdf:about="">
        <dc:format>image/svg+xml</dc:format>
        <dc:type
           rdf:resource="http://purl.org/dc/dcmitype/StillImage" />
        <dc:title />
      </cc:Work>
    </rdf:RDF>
  </metadata>
  <g
     inkscape:label="Layer 1"
     inkscape:groupmode="layer"
     id="layer1"
     transform="translate(-43.319502,-683.18155)">
    <g
       id="g4272"
       transform="matrix(0.70710678,0.70710678,-0.70710678,0.70710678,674.4508,95.455848)">
      <rect
         y="786.50452"
         x="71.284912"
         height="150.71507"
         width="301.43015"
         id="rect4270"
         style="opacity:1;fill:url(#radialGradient4324);fill-opacity:1;stroke:#804a11;stroke-width:9.47893429;stroke-linecap:butt;stroke-linejoin:miter;stroke-miterlimit:4;stroke-dasharray:none;stroke-dashoffset:0;stroke-opacity:1" />
      <g
         inkscape:path-effect="#path-effect4360"
         style="font-style:normal;font-variant:normal;font-weight:normal;font-stretch:normal;font-size:39.99999619px;line-height:125%;font-family:'American Typewriter';-inkscape-font-specification:'American Typewriter, Normal';text-align:start;letter-spacing:0px;word-spacing:0px;writing-mode:lr-tb;text-anchor:start;opacity:0.24600004;fill:#000000;fill-opacity:1;stroke:none;stroke-width:1px;stroke-linecap:butt;stroke-linejoin:miter;stroke-opacity:1"
         id="g4348"
         transform="matrix(2.1866141,0,0,2.1866141,-103.13774,-686.30895)">
        <path
           inkscape:original-d="m 102.28,716.08206 q 0,3 2.04,3 0.32,0 0.96,-0.08 0.64,-0.12 0.96,-0.12 0.52,0 0.88,0.4 0.4,0.36 0.4,0.88 0,1.4 -1.8,1.4 -0.08,0 -0.24,0 -0.2,-0.04 -0.28,-0.04 l -1.96,-0.28 q -1.12,-0.16 -2.52,-0.16 -1.520001,0 -2.680001,0.16 l -2,0.28 q -0.12,0 -0.28,0.04 -0.2,0 -0.28,0 -1.76,0 -1.76,-1.4 0,-1.28 1.28,-1.28 0.32,0 0.96,0.12 0.64,0.08 0.96,0.08 2,0 2,-3 l 0,-2.8 0.04,-3.52 0,-3.4 -0.04,-6.52 q 0,-2.84 -2.92,-2.84 l -1.24,0 q -2.879999,0 -2.879999,2.8 0,1 0.04,1.36 l 0.16,1.48 q 0.04,0.36 0.04,1 0,2.52 -1.56,2.52 -1.48,0 -1.48,-1.84 0,-0.52 0.08,-1.8 0.12,-1.92 0.12,-2.44 0,-1 -0.08,-2.08 -0.16,-2.12 -0.16,-1.8 0,-1.68 1.52,-1.68 0.56,0 2.6,0.12 0.199999,0 3.279999,0.08 l 4.560001,0.08 q 0.8,0 4.28,-0.08 0.76,0 2.6,-0.12 1.64,-0.12 2.56,-0.12 2,0 2,1.64 l 0,0.08 q 0,0.4 -0.12,1.48 -0.08,1.08 -0.2,2.32 l 0,0.44 q 0,0.6 0.12,1.88 0.16,1.68 0.16,2.08 0,1.64 -1.56,1.64 -1.52,0 -1.52,-2 0,-0.72 0.12,-2.12 0.12,-1.44 0.12,-2.16 0,-2.76 -3.16,-2.76 l -1.12,0 q -1.48,0 -2.12,0.64 -0.64,0.6 -0.72,2.04 l -0.12,2.8 -0.04,13.6 z"
           d="m 102.19096,715.38826 c 0,2 0.68,3 2.04,3 0.21333,0 0.53333,-0.0267 0.96,-0.08 0.42667,-0.08 0.74667,-0.12 0.96,-0.12 0.34667,0 0.64,0.13333 0.88,0.4 0.26667,0.24 0.4,0.53333 0.4,0.88 0,0.93333 -0.6,1.4 -1.8,1.4 0.0267,0 -0.21333,0 -0.24,0 -0.13333,-0.0267 -0.22667,-0.04 -0.28,-0.04 0,0 -1.96,-0.28 -1.96,-0.28 -0.74667,-0.10667 -1.58667,-0.16 -2.52,-0.16 -1.013334,0 -1.906668,0.0533 -2.680001,0.16 0,0 -2,0.28 -2,0.28 -0.08,0 -0.173333,0.0133 -0.28,0.04 -0.04,0 -0.32,0 -0.28,0 -1.173333,0 -1.76,-0.46667 -1.76,-1.4 0,-0.85334 0.426667,-1.28 1.28,-1.28 0.213333,0 0.533333,0.04 0.96,0.12 0.426667,0.0533 0.746667,0.08 0.96,0.08 1.333333,0 2,-1 2,-3 0,-0.13334 0,-2.66667 0,-2.8 0.0083,-0.72976 0.03171,-2.79025 0.04,-3.52 0,0 0,-3.4 0,-3.4 1.49e-4,0.0242 -0.04015,-6.54424 -0.04,-6.52 0,-1.89334 -0.973333,-2.84 -2.92,-2.84 0,0 -1.24,0 -1.24,0 -1.919999,0 -2.879999,0.93333 -2.879999,2.8 0,0.66666 0.01333,1.12 0.04,1.36 0.0039,0.0357 0.156145,1.44434 0.16,1.48 0.02667,0.24 0.04,0.57333 0.04,1 0,1.68 -0.52,2.52 -1.56,2.52 -0.986667,0 -1.48,-0.61334 -1.48,-1.84 0,-0.34667 0.02667,-0.94667 0.08,-1.8 0.08,-1.28 0.12,-2.09334 0.12,-2.44 0,-0.66667 -0.02667,-1.36 -0.08,-2.08 -0.106667,-1.41334 -0.16,-2.01334 -0.16,-1.8 0,-1.12 0.506667,-1.68 1.52,-1.68 0.373333,0 1.24,0.04 2.6,0.12 0.133333,0 1.226666,0.0267 3.279999,0.08 0.07643,0.001 4.483581,0.0787 4.560001,0.08 0.53333,0 1.96,-0.0267 4.28,-0.08 0.50667,0 1.37333,-0.04 2.6,-0.12 1.09333,-0.08 1.94667,-0.12 2.56,-0.12 1.33333,0 2,0.54666 2,1.64 0,0 0,0.08 0,0.08 0,0.26666 -0.04,0.76 -0.12,1.48 -0.0533,0.72 -0.12,1.49333 -0.2,2.32 0,0 0,0.44 0,0.44 0,0.4 0.04,1.02666 0.12,1.88 0.10667,1.12 0.16,1.81333 0.16,2.08 0,1.09333 -0.52,1.64 -1.56,1.64 -1.01333,0 -1.52,-0.66667 -1.52,-2 0,-0.48 0.04,-1.18667 0.12,-2.12 0.08,-0.96 0.12,-1.68 0.12,-2.16 0,-1.84 -1.05333,-2.76 -3.16,-2.76 0,0 -1.12,0 -1.12,0 -0.98667,0 -1.69333,0.21333 -2.12,0.64 -0.42667,0.4 -0.66667,1.08 -0.72,2.04 -0.0139,0.32307 -0.10615,2.47692 -0.12,2.8 -0.008,2.71901 -0.032,10.88098 -0.04,13.6 z"
           id="path4350"
           inkscape:connector-curvature="0"
           style="fill:#000000;fill-opacity:1" />
        <path
           inkscape:original-d="m 119.42875,700.00206 q 0,-2.96 -2.04,-2.96 -0.56,0 -0.84,0.08 -0.64,0.12 -1.08,0.12 -0.52,0 -0.88,-0.36 -0.36,-0.4 -0.36,-0.96 0,-1.4 1.76,-1.4 0.24,0 0.56,0.04 l 2.12,0.28 q 1.2,0.16 2.48,0.16 1.24,0 2.72,-0.2 l 1.8,-0.24 q 0.32,-0.04 0.56,-0.04 1.76,0 1.76,1.4 0,0.56 -0.36,0.96 -0.36,0.36 -0.88,0.36 -0.4,0 -1.08,-0.12 -0.28,-0.08 -0.84,-0.08 -2.04,0 -2.04,2.96 l 0,16.04 q 0,3 2.04,3 0.32,0 0.84,-0.08 0.76,-0.12 1.08,-0.12 1.24,0 1.24,1.28 0,1.44 -1.76,1.44 -0.08,0 -0.28,0 -0.16,-0.04 -0.28,-0.04 l -2.08,-0.32 q -1.04,-0.16 -2.2,-0.16 -1.68,0 -3,0.2 l -1.84,0.28 q -0.08,0 -0.28,0.04 -0.2,0 -0.32,0 -1.72,0 -1.72,-1.44 0,-1.28 1.24,-1.28 0.2,0 1.08,0.08 0.44,0.12 0.84,0.12 2.04,0 2.04,-3 l 0,-16.04 z"
           d="m 119.33971,699.30826 c 0,-1.97334 -0.68,-2.96 -2.04,-2.96 -0.37333,0 -0.65333,0.0267 -0.84,0.08 -0.42667,0.08 -0.78667,0.12 -1.08,0.12 -0.34667,0 -0.64,-0.12 -0.88,-0.36 -0.24,-0.26667 -0.36,-0.58667 -0.36,-0.96 0,-0.93334 0.58667,-1.4 1.76,-1.4 0.16,0 0.34667,0.0133 0.56,0.04 0,0 2.12,0.28 2.12,0.28 0.8,0.10666 1.62667,0.16 2.48,0.16 0.82667,0 1.73333,-0.0667 2.72,-0.2 0.6,-0.08 1.2,-0.16 1.8,-0.24 0.21333,-0.0267 0.4,-0.04 0.56,-0.04 1.17333,0 1.76,0.46666 1.76,1.4 0,0.37333 -0.12,0.69333 -0.36,0.96 -0.24,0.24 -0.53333,0.36 -0.88,0.36 -0.26667,0 -0.62667,-0.04 -1.08,-0.12 -0.18667,-0.0533 -0.46667,-0.08 -0.84,-0.08 -1.36,0 -2.04,0.98666 -2.04,2.96 0,3.208 0,12.832 0,16.04 0,2 0.68,3 2.04,3 0.21333,0 0.49333,-0.0267 0.84,-0.08 0.50667,-0.08 0.86667,-0.12 1.08,-0.12 0.82667,0 1.24,0.42666 1.24,1.28 0,0.96 -0.58667,1.44 -1.76,1.44 0.04,0 -0.24,0 -0.28,0 -0.10667,-0.0267 -0.2,-0.04 -0.28,-0.04 0,0 -2.08,-0.32 -2.08,-0.32 -0.69333,-0.10667 -1.42667,-0.16 -2.2,-0.16 -1.12,0 -2.12,0.0667 -3,0.2 0,0 -1.84,0.28 -1.84,0.28 -0.0533,0 -0.14667,0.0133 -0.28,0.04 0,0 -0.32,0 -0.32,0 -1.14667,0 -1.72,-0.48 -1.72,-1.44 0,-0.85334 0.41333,-1.28 1.24,-1.28 0.13333,0 0.49333,0.0267 1.08,0.08 0.29333,0.08 0.57333,0.12 0.84,0.12 1.36,0 2.04,-1 2.04,-3 0,0 0,-16.04 0,-16.04 z"
           id="path4352"
           inkscape:connector-curvature="0"
           style="fill:#000000;fill-opacity:1" />
        <path
           inkscape:original-d="m 142.18124,693.80206 q 4,0 7.24,3 -0.08,-0.56 -0.08,-0.64 -0.08,-0.8 -0.08,-0.88 0,-1.32 1.32,-1.32 1.44,0 1.44,1.72 0,0.56 -0.04,0.84 l -0.28,1.92 q -0.12,0.84 -0.12,1.8 0,0.76 0.16,3.24 0,0 0,0.36 0,1.8 -1.48,1.8 -1.4,0 -1.4,-1.96 l 0,-1.2 q 0,-2.76 -1.84,-4.36 -1.8,-1.6 -4.88,-1.6 -3.87999,0 -6.07999,3 -2.2,3 -2.2,8.24 0,5.56 2.24,8.68 2.28,3.12 6.27999,3.12 3.08,0 4.76,-1.8 1.68,-1.8 1.68,-5.12 0,-1.36 -0.48,-1.88 -0.44,-0.56 -1.6,-0.56 -0.32,0 -0.92,0.04 -0.6,0.04 -0.92,0.04 -1.92,0 -1.92,-1.36 0,-1.4 1.64,-1.4 0.52,0 1.16,0.08 2.52,0.32 4.04,0.32 1.96,0 4.16,-0.36 0.48,-0.08 1.08,-0.08 1.6,0 1.6,1.32 0,0.56 -0.44,0.96 -0.4,0.4 -0.96,0.4 -0.48,0 -0.72,-0.04 -0.08,0 -0.28,-0.04 -0.2,0 -0.32,0 -1.76,0 -1.76,3.92 l 0,3.2 q 0,1.04 0.08,1.88 0.08,0.84 0.08,1.32 0,1.64 -1.44,1.64 -1.4,0 -1.4,-1.4 0,0 0.08,-0.96 0.04,-0.36 0.08,-1.24 -0.92,1.24 -1.44,1.72 -2.32,2.08 -6.44,2.08 -5.15999,0 -8.31999,-3.84 -3.16,-3.84 -3.16,-10.04 0,-6.64 3.2,-10.6 3.24,-3.96 8.67999,-3.96 z"
           d="m 142.0922,693.10826 c 2.66667,0 5.08,1 7.24,3 -0.0533,-0.37334 -0.08,-0.58667 -0.08,-0.64 -0.0533,-0.53334 -0.08,-0.82667 -0.08,-0.88 0,-0.88 0.44,-1.32 1.32,-1.32 0.96,0 1.44,0.57333 1.44,1.72 0,0.37333 -0.0133,0.65333 -0.04,0.84 -0.01,0.0662 -0.27034,1.85379 -0.28,1.92 -0.08,0.56 -0.12,1.16 -0.12,1.8 0,0.50666 0.0533,1.58666 0.16,3.24 0,0 0,0.12 0,0.36 0,1.2 -0.49333,1.8 -1.48,1.8 -0.93333,0 -1.4,-0.65334 -1.4,-1.96 0,0 0,-1.2 0,-1.2 0,-1.84 -0.61333,-3.29334 -1.84,-4.36 -1.2,-1.06667 -2.82667,-1.6 -4.88,-1.6 -2.58666,0 -4.61332,1 -6.07999,3 -1.46667,2 -2.2,4.74666 -2.2,8.24 0,3.70666 0.74667,6.6 2.24,8.68 1.52,2.08 3.61333,3.12 6.27999,3.12 2.05333,0 3.64,-0.6 4.76,-1.8 1.12,-1.2 1.68,-2.90667 1.68,-5.12 0,-0.90667 -0.16,-1.53334 -0.48,-1.88 -0.29333,-0.37334 -0.82667,-0.56 -1.6,-0.56 -0.21333,0 -0.52,0.0133 -0.92,0.04 -0.4,0.0267 -0.70667,0.04 -0.92,0.04 -1.28,0 -1.92,-0.45334 -1.92,-1.36 0,-0.93334 0.54667,-1.4 1.64,-1.4 0.34667,0 0.73333,0.0267 1.16,0.08 1.68,0.21333 3.02667,0.32 4.04,0.32 1.30667,0 2.69333,-0.12 4.16,-0.36 0.32,-0.0533 0.68,-0.08 1.08,-0.08 1.06667,0 1.6,0.44 1.6,1.32 0,0.37333 -0.14667,0.69333 -0.44,0.96 -0.26667,0.26666 -0.58667,0.4 -0.96,0.4 -0.32,0 -0.56,-0.0133 -0.72,-0.04 -0.0533,0 -0.14667,-0.0133 -0.28,-0.04 -0.0267,0 -0.34667,0 -0.32,0 -1.17333,0 -1.76,1.30666 -1.76,3.92 0,0 0,3.2 0,3.2 0,0.69333 0.0267,1.32 0.08,1.88 0.0533,0.56 0.08,1 0.08,1.32 0,1.09333 -0.48,1.64 -1.44,1.64 -0.93333,0 -1.4,-0.46667 -1.4,-1.4 0,0 0.0267,-0.32 0.08,-0.96 0.0267,-0.24 0.0533,-0.65334 0.08,-1.24 -0.61333,0.82666 -1.09333,1.4 -1.44,1.72 -1.54667,1.38666 -3.69333,2.08 -6.44,2.08 -3.43999,0 -6.21332,-1.28 -8.31999,-3.84 -2.10667,-2.56 -3.16,-5.90667 -3.16,-10.04 0,-4.42667 1.06667,-7.96 3.2,-10.6 2.16,-2.64 5.05333,-3.96 8.67999,-3.96 z"
           id="path4354"
           inkscape:connector-curvature="0"
           style="fill:#000000;fill-opacity:1" />
        <path
           inkscape:original-d="m 163.10062,700.00206 q 0,-2.96 -2.04,-2.96 -0.56,0 -0.84,0.08 -0.64,0.12 -1.08,0.12 -0.52,0 -0.88,-0.36 -0.36,-0.4 -0.36,-0.96 0,-1.4 1.68,-1.4 0.04,0 0.6,0.04 6,0.4 5.6,0.4 0.4,0 0.4,0 l 9.64,-0.28 q 0.28,0 2.08,-0.12 0.64,-0.04 1.16,-0.04 2.08,0 2.08,1.84 0,0.32 -0.16,2.04 -0.12,1.28 -0.12,2.36 0,1.4 0.08,1.96 0.16,1.16 0.16,1.72 0,1.52 -1.44,1.52 -1.44,0 -1.44,-2.12 l 0,-2.08 q 0,-3.36 -1.4,-3.96 -1.04,-0.44 -5.36,-0.44 -2.84,0 -3.36,0.12 -1.72,0.44 -1.72,2.4 l 0,1.8 q 0,0.32 0,0.88 -0.04,0.56 -0.04,0.8 l 0,0.52 q 0,1.6 0.72,1.84 0.28,0.08 0.96,0.08 l 1.64,0 q 2.52,0 2.52,-1.72 0,-0.48 -0.12,-1.24 -0.12,-0.76 -0.12,-1.36 0,-1.6 1.44,-1.6 1.44,0 1.44,1.72 0,0.32 -0.28,2.48 -0.24,1.84 -0.24,3.24 0,0.8 0.16,2.84 0.04,0.32 0.2,1.4 0.12,0.88 0.12,1.4 0,1.44 -1.44,1.44 -1.4,0 -1.4,-1.68 0,-0.44 0.08,-1.28 0.12,-0.84 0.12,-1.28 0,-1.72 -2.28,-1.72 l -1.8,0 q -1.16,0 -1.44,0.4 -0.24,0.4 -0.24,1.72 l 0,2.48 q 0,0.64 0.04,1.72 0.04,1.32 0.04,1.76 0.04,1.6 0.64,2 0.44,0.28 2.08,0.28 l 5.44,0 q 2.36,0 3.24,-0.68 0.88,-0.72 0.88,-2.64 0,-0.6 -0.08,-1.76 -0.04,-1.2 -0.04,-1.8 0,-1.8 1.44,-1.8 1.52,0 1.52,1.84 0,0.72 -0.08,2.2 -0.08,1.48 -0.08,2.2 0,0.56 0.04,1.68 0.08,1.08 0.08,1.64 0,1.88 -1.84,1.88 -0.44,0 -1.4,-0.08 -0.48,-0.04 -1.76,-0.04 0.28,0 -3.12,-0.08 -3.4,-0.08 -5.88,-0.08 -3.76,0 -7.36,0.24 -0.16,0 -0.36,0.04 -0.2,0 -0.24,0 -1.68,0 -1.68,-1.44 0,-1.28 1.24,-1.28 0.2,0 1.08,0.08 0.44,0.12 0.84,0.12 2.04,0 2.04,-3 l 0,-16.04 z"
           d="m 163.01158,699.30826 c 0,-1.97334 -0.68,-2.96 -2.04,-2.96 -0.37333,0 -0.65333,0.0267 -0.84,0.08 -0.42667,0.08 -0.78667,0.12 -1.08,0.12 -0.34667,0 -0.64,-0.12 -0.88,-0.36 -0.24,-0.26667 -0.36,-0.58667 -0.36,-0.96 0,-0.93334 0.56,-1.4 1.68,-1.4 0.0267,0 0.22667,0.0133 0.6,0.04 4,0.26666 5.86667,0.4 5.6,0.4 0.26667,0 0.4,0 0.4,0 -1.46061,0.0424 11.10061,-0.32243 9.64,-0.28 0.18667,0 0.88,-0.04 2.08,-0.12 0.42667,-0.0267 0.81333,-0.04 1.16,-0.04 1.38667,0 2.08,0.61333 2.08,1.84 0,0.21333 -0.0533,0.89333 -0.16,2.04 -0.08,0.85333 -0.12,1.64 -0.12,2.36 0,0.93333 0.0267,1.58666 0.08,1.96 0.10667,0.77333 0.16,1.34666 0.16,1.72 0,1.01333 -0.48,1.52 -1.44,1.52 -0.96,0 -1.44,-0.70667 -1.44,-2.12 0,0 0,-2.08 0,-2.08 0,-2.24 -0.46667,-3.56 -1.4,-3.96 -0.69333,-0.29334 -2.48,-0.44 -5.36,-0.44 -1.89333,0 -3.01333,0.04 -3.36,0.12 -1.14667,0.29333 -1.72,1.09333 -1.72,2.4 0,0 0,1.8 0,1.8 0,-0.08 0,0.8 0,0.88 -0.0267,0.37333 -0.04,0.64 -0.04,0.8 0,0 0,0.52 0,0.52 0,1.06666 0.24,1.68 0.72,1.84 0.18667,0.0533 0.50667,0.08 0.96,0.08 0.54667,0 1.09333,0 1.64,0 1.68,0 2.52,-0.57334 2.52,-1.72 0,-0.32 -0.04,-0.73334 -0.12,-1.24 -0.08,-0.50667 -0.12,-0.96 -0.12,-1.36 0,-1.06667 0.48,-1.6 1.44,-1.6 0.96,0 1.44,0.57333 1.44,1.72 0,0.21333 -0.0933,1.04 -0.28,2.48 -0.16,1.22666 -0.24,2.30666 -0.24,3.24 0,0.53333 0.0533,1.48 0.16,2.84 0.0267,0.21333 0.0933,0.68 0.2,1.4 0.08,0.58666 0.12,1.05333 0.12,1.4 0,0.96 -0.48,1.44 -1.44,1.44 -0.93333,0 -1.4,-0.56 -1.4,-1.68 0,-0.29334 0.0267,-0.72 0.08,-1.28 0.08,-0.56 0.12,-0.98667 0.12,-1.28 0,-1.14667 -0.76,-1.72 -2.28,-1.72 -0.0261,0 -1.77391,0 -1.8,0 -0.77333,0 -1.25333,0.13333 -1.44,0.4 -0.16,0.26666 -0.24,0.84 -0.24,1.72 0,0 0,2.48 0,2.48 0,0.42666 0.0133,1 0.04,1.72 0.0267,0.88 0.04,1.46666 0.04,1.76 0.0267,1.06666 0.24,1.73333 0.64,2 0.29333,0.18666 0.98667,0.28 2.08,0.28 0,0 5.44,0 5.44,0 1.57333,0 2.65333,-0.22667 3.24,-0.68 0.58667,-0.48 0.88,-1.36 0.88,-2.64 0,-0.4 -0.0267,-0.98667 -0.08,-1.76 -0.0267,-0.8 -0.04,-1.4 -0.04,-1.8 0,-1.2 0.48,-1.8 1.44,-1.8 1.01333,0 1.52,0.61333 1.52,1.84 0,0.48 -0.0267,1.21333 -0.08,2.2 -0.0533,0.98666 -0.08,1.72 -0.08,2.2 0,0.37333 0.0133,0.93333 0.04,1.68 0.0533,0.72 0.08,1.26666 0.08,1.64 0,1.25333 -0.61333,1.88 -1.84,1.88 -0.29333,0 -0.76,-0.0267 -1.4,-0.08 -0.32,-0.0267 -0.90667,-0.04 -1.76,-0.04 0.18667,0 -0.85333,-0.0267 -3.12,-0.08 -2.26667,-0.0533 -4.22667,-0.08 -5.88,-0.08 -2.50667,0 -4.96,0.08 -7.36,0.24 -0.10667,0 -0.22667,0.0133 -0.36,0.04 -0.0533,0 -0.29333,0 -0.24,0 -1.12,0 -1.68,-0.48 -1.68,-1.44 0,-0.85334 0.41333,-1.28 1.24,-1.28 0.13333,0 0.49333,0.0267 1.08,0.08 0.29333,0.08 0.57333,0.12 0.84,0.12 1.36,0 2.04,-1 2.04,-3 0,0 0,-16.04 0,-16.04 z"
           id="path4356"
           inkscape:connector-curvature="0"
           style="fill:#000000;fill-opacity:1" />
        <path
           inkscape:original-d="m 205.57374,706.64206 q -1.16,0.56 -2.96,0.96 2.36,0.44 3.24,1.76 0.92,1.32 0.92,4.36 l 0,1.84 q -0.04,0.16 -0.04,0.48 0,2.88 1.84,2.88 1.88,0 1.88,-3.44 0,-1.2 0,-1.2 l -0.04,-1 q 0,0 0,-0.56 0,-1.16 0.16,-1.6 0.32,-0.68 1.24,-0.68 1.44,0 1.44,1.68 0,0.04 -0.04,0.88 l -0.04,0.84 q -0.04,0.84 -0.04,1.08 l 0,1 q 0.04,0.24 0.04,0.72 0,2.32 -1.32,3.64 -1.28,1.28 -3.6,1.28 -4.72,0 -4.72,-4.76 l 0,-1.2 0.04,-1.36 0,-0.88 q 0,-2.68 -1.04,-3.52 -1,-0.88 -4.2,-0.88 l -3.72,0 q -1.28,0 -1.28,1.56 l 0,3.08 q 0,2.96 0.08,3.36 0.36,2 2,2 0.56,0 0.84,-0.08 0.68,-0.12 1.04,-0.12 1.28,0 1.28,1.36 0,1.44 -1.72,1.44 0,0 -0.6,-0.08 l -2.16,-0.28 q -1.24,-0.16 -2.2,-0.16 -1.2,0 -2.8,0.2 l -1.92,0.24 q -0.64,0.08 -0.6,0.08 -1.72,0 -1.72,-1.44 0,-1.28 1.24,-1.28 0.2,0 1.08,0.08 0.44,0.12 0.84,0.12 2.04,0 2.04,-3 l 0,-16.04 q 0,-3 -2.04,-3 -0.32,0 -0.96,0.12 -0.64,0.08 -0.96,0.08 -0.52,0 -0.88,-0.36 -0.36,-0.4 -0.36,-0.92 0,-1.4 1.76,-1.4 0.16,0 0.56,0.04 l 2.04,0.2 q 0.8,0.08 2,0.08 1.24,0 2.76,-0.08 l 3.04,-0.16 q 1.52,-0.08 2.8,-0.08 8.8,0 8.8,6.72 0,3.96 -3.04,5.4 z m -11.08,-0.36 3.76,0 q 3.36,0 5.04,-0.96 2.04,-1.16 2.04,-3.88 0,-4.56 -6.24,-4.56 -3.32,0 -4.52,0.52 -1.16,0.48 -1.2,1.96 l -0.04,1.28 0,4.6 q 0,0.68 0.24,0.88 0.24,0.16 0.92,0.16 z"
           d="m 205.4847,705.94826 c -0.77333,0.37333 -1.76,0.69333 -2.96,0.96 1.57333,0.29333 2.65333,0.88 3.24,1.76 0.61333,0.88 0.92,2.33333 0.92,4.36 0,0.61333 0,1.22666 0,1.84 -0.0267,0.10666 -0.04,0.26666 -0.04,0.48 0,1.92 0.61333,2.88 1.84,2.88 1.25333,0 1.88,-1.14667 1.88,-3.44 0,-0.8 0,-1.2 0,-1.2 0,0 -0.04,-1 -0.04,-1 0,0 0,-0.18667 0,-0.56 0,-0.77334 0.0533,-1.30667 0.16,-1.6 0.21333,-0.45334 0.62667,-0.68 1.24,-0.68 0.96,0 1.44,0.56 1.44,1.68 0,0.0267 -0.0133,0.32 -0.04,0.88 0.001,-0.0244 -0.0412,0.86435 -0.04,0.84 -0.0267,0.56 -0.04,0.92 -0.04,1.08 0,-0.0167 0,1.01666 0,1 0.0267,0.16 0.04,0.4 0.04,0.72 0,1.54666 -0.44,2.76 -1.32,3.64 -0.85333,0.85333 -2.05333,1.28 -3.6,1.28 -3.14667,0 -4.72,-1.58667 -4.72,-4.76 0,-0.0293 0,-1.17073 0,-1.2 9.4e-4,-0.032 0.0391,-1.328 0.04,-1.36 0,-0.29334 0,-0.58667 0,-0.88 0,-1.78667 -0.34667,-2.96 -1.04,-3.52 -0.66667,-0.58667 -2.06667,-0.88 -4.2,-0.88 -1.24,0 -2.48,0 -3.72,0 -0.85333,0 -1.28,0.52 -1.28,1.56 0,0 0,3.08 0,3.08 0,1.97333 0.0267,3.09333 0.08,3.36 0.24,1.33333 0.90667,2 2,2 0.37333,0 0.65333,-0.0267 0.84,-0.08 0.45333,-0.08 0.8,-0.12 1.04,-0.12 0.85333,0 1.28,0.45333 1.28,1.36 0,0.96 -0.57333,1.44 -1.72,1.44 0,0 -0.2,-0.0267 -0.6,-0.08 0,0 -2.16,-0.28 -2.16,-0.28 -0.82667,-0.10667 -1.56,-0.16 -2.2,-0.16 -0.8,0 -1.73333,0.0667 -2.8,0.2 0,0 -1.92,0.24 -1.92,0.24 -0.42667,0.0533 -0.62667,0.08 -0.6,0.08 -1.14667,0 -1.72,-0.48 -1.72,-1.44 0,-0.85334 0.41333,-1.28 1.24,-1.28 0.13333,0 0.49333,0.0267 1.08,0.08 0.29333,0.08 0.57333,0.12 0.84,0.12 1.36,0 2.04,-1 2.04,-3 0,0 0,-16.04 0,-16.04 0,-2 -0.68,-3 -2.04,-3 -0.21333,0 -0.53333,0.04 -0.96,0.12 -0.42667,0.0533 -0.74667,0.08 -0.96,0.08 -0.34667,0 -0.64,-0.12 -0.88,-0.36 -0.24,-0.26667 -0.36,-0.57334 -0.36,-0.92 0,-0.93334 0.58667,-1.4 1.76,-1.4 0.10667,0 0.29333,0.0133 0.56,0.04 0,0 2.04,0.2 2.04,0.2 0.53333,0.0533 1.2,0.08 2,0.08 0.82667,0 1.74667,-0.0267 2.76,-0.08 -0.0199,0.001 3.05987,-0.16105 3.04,-0.16 1.01333,-0.0533 1.94667,-0.08 2.8,-0.08 5.86667,0 8.8,2.24 8.8,6.72 0,2.64 -1.01333,4.44 -3.04,5.4 z m -11.08,-0.36 c -0.0432,0 3.80322,0 3.76,0 2.24,0 3.92,-0.32 5.04,-0.96 1.36,-0.77334 2.04,-2.06667 2.04,-3.88 0,-3.04 -2.08,-4.56 -6.24,-4.56 -2.21333,0 -3.72,0.17333 -4.52,0.52 -0.77333,0.32 -1.17333,0.97333 -1.2,1.96 -9.7e-4,0.0309 -0.039,1.24908 -0.04,1.28 0,0 0,4.6 0,4.6 0,0.45333 0.08,0.74666 0.24,0.88 0.16,0.10666 0.46667,0.16 0.92,0.16 z"
           id="path4358"
           inkscape:connector-curvature="0"
           style="fill:#000000;fill-opacity:1" />
      </g>
      <g
         transform="matrix(2.1866141,0,0,2.1866141,-108.49983,-686.30895)"
         id="text4255"
         style="font-style:normal;font-variant:normal;font-weight:normal;font-stretch:normal;font-size:39.99999619px;line-height:125%;font-family:'American Typewriter';-inkscape-font-specification:'American Typewriter, Normal';text-align:start;letter-spacing:0px;word-spacing:0px;writing-mode:lr-tb;text-anchor:start;fill:#913a00;fill-opacity:1;stroke:none;stroke-width:1px;stroke-linecap:butt;stroke-linejoin:miter;stroke-opacity:1"
         inkscape:path-effect="#path-effect4334">
        <path
           style="fill:#913a00;fill-opacity:1"
           inkscape:connector-curvature="0"
           id="path4260"
           d="m 102.19096,715.38826 c 0,2 0.68,3 2.04,3 0.21333,0 0.53333,-0.0267 0.96,-0.08 0.42667,-0.08 0.74667,-0.12 0.96,-0.12 0.34667,0 0.64,0.13333 0.88,0.4 0.26667,0.24 0.4,0.53333 0.4,0.88 0,0.93333 -0.6,1.4 -1.8,1.4 0.0267,0 -0.21333,0 -0.24,0 -0.13333,-0.0267 -0.22667,-0.04 -0.28,-0.04 0,0 -1.96,-0.28 -1.96,-0.28 -0.74667,-0.10667 -1.58667,-0.16 -2.52,-0.16 -1.013334,0 -1.906668,0.0533 -2.680001,0.16 0,0 -2,0.28 -2,0.28 -0.08,0 -0.173333,0.0133 -0.28,0.04 -0.04,0 -0.32,0 -0.28,0 -1.173333,0 -1.76,-0.46667 -1.76,-1.4 0,-0.85334 0.426667,-1.28 1.28,-1.28 0.213333,0 0.533333,0.04 0.96,0.12 0.426667,0.0533 0.746667,0.08 0.96,0.08 1.333333,0 2,-1 2,-3 0,-0.13334 0,-2.66667 0,-2.8 0.0083,-0.72976 0.03171,-2.79025 0.04,-3.52 0,0 0,-3.4 0,-3.4 1.49e-4,0.0242 -0.04015,-6.54424 -0.04,-6.52 0,-1.89334 -0.973333,-2.84 -2.92,-2.84 0,0 -1.24,0 -1.24,0 -1.919999,0 -2.879999,0.93333 -2.879999,2.8 0,0.66666 0.01333,1.12 0.04,1.36 0.0039,0.0357 0.156145,1.44434 0.16,1.48 0.02667,0.24 0.04,0.57333 0.04,1 0,1.68 -0.52,2.52 -1.56,2.52 -0.986667,0 -1.48,-0.61334 -1.48,-1.84 0,-0.34667 0.02667,-0.94667 0.08,-1.8 0.08,-1.28 0.12,-2.09334 0.12,-2.44 0,-0.66667 -0.02667,-1.36 -0.08,-2.08 -0.106667,-1.41334 -0.16,-2.01334 -0.16,-1.8 0,-1.12 0.506667,-1.68 1.52,-1.68 0.373333,0 1.24,0.04 2.6,0.12 0.133333,0 1.226666,0.0267 3.279999,0.08 0.07643,0.001 4.483581,0.0787 4.560001,0.08 0.53333,0 1.96,-0.0267 4.28,-0.08 0.50667,0 1.37333,-0.04 2.6,-0.12 1.09333,-0.08 1.94667,-0.12 2.56,-0.12 1.33333,0 2,0.54666 2,1.64 0,0 0,0.08 0,0.08 0,0.26666 -0.04,0.76 -0.12,1.48 -0.0533,0.72 -0.12,1.49333 -0.2,2.32 0,0 0,0.44 0,0.44 0,0.4 0.04,1.02666 0.12,1.88 0.10667,1.12 0.16,1.81333 0.16,2.08 0,1.09333 -0.52,1.64 -1.56,1.64 -1.01333,0 -1.52,-0.66667 -1.52,-2 0,-0.48 0.04,-1.18667 0.12,-2.12 0.08,-0.96 0.12,-1.68 0.12,-2.16 0,-1.84 -1.05333,-2.76 -3.16,-2.76 0,0 -1.12,0 -1.12,0 -0.98667,0 -1.69333,0.21333 -2.12,0.64 -0.42667,0.4 -0.66667,1.08 -0.72,2.04 -0.0139,0.32307 -0.10615,2.47692 -0.12,2.8 -0.008,2.71901 -0.032,10.88098 -0.04,13.6 z"
           inkscape:original-d="m 102.28,716.08206 q 0,3 2.04,3 0.32,0 0.96,-0.08 0.64,-0.12 0.96,-0.12 0.52,0 0.88,0.4 0.4,0.36 0.4,0.88 0,1.4 -1.8,1.4 -0.08,0 -0.24,0 -0.2,-0.04 -0.28,-0.04 l -1.96,-0.28 q -1.12,-0.16 -2.52,-0.16 -1.520001,0 -2.680001,0.16 l -2,0.28 q -0.12,0 -0.28,0.04 -0.2,0 -0.28,0 -1.76,0 -1.76,-1.4 0,-1.28 1.28,-1.28 0.32,0 0.96,0.12 0.64,0.08 0.96,0.08 2,0 2,-3 l 0,-2.8 0.04,-3.52 0,-3.4 -0.04,-6.52 q 0,-2.84 -2.92,-2.84 l -1.24,0 q -2.879999,0 -2.879999,2.8 0,1 0.04,1.36 l 0.16,1.48 q 0.04,0.36 0.04,1 0,2.52 -1.56,2.52 -1.48,0 -1.48,-1.84 0,-0.52 0.08,-1.8 0.12,-1.92 0.12,-2.44 0,-1 -0.08,-2.08 -0.16,-2.12 -0.16,-1.8 0,-1.68 1.52,-1.68 0.56,0 2.6,0.12 0.199999,0 3.279999,0.08 l 4.560001,0.08 q 0.8,0 4.28,-0.08 0.76,0 2.6,-0.12 1.64,-0.12 2.56,-0.12 2,0 2,1.64 l 0,0.08 q 0,0.4 -0.12,1.48 -0.08,1.08 -0.2,2.32 l 0,0.44 q 0,0.6 0.12,1.88 0.16,1.68 0.16,2.08 0,1.64 -1.56,1.64 -1.52,0 -1.52,-2 0,-0.72 0.12,-2.12 0.12,-1.44 0.12,-2.16 0,-2.76 -3.16,-2.76 l -1.12,0 q -1.48,0 -2.12,0.64 -0.64,0.6 -0.72,2.04 l -0.12,2.8 -0.04,13.6 z" />
        <path
           style="fill:#913a00;fill-opacity:1"
           inkscape:connector-curvature="0"
           id="path4262"
           d="m 119.33971,699.30826 c 0,-1.97334 -0.68,-2.96 -2.04,-2.96 -0.37333,0 -0.65333,0.0267 -0.84,0.08 -0.42667,0.08 -0.78667,0.12 -1.08,0.12 -0.34667,0 -0.64,-0.12 -0.88,-0.36 -0.24,-0.26667 -0.36,-0.58667 -0.36,-0.96 0,-0.93334 0.58667,-1.4 1.76,-1.4 0.16,0 0.34667,0.0133 0.56,0.04 0,0 2.12,0.28 2.12,0.28 0.8,0.10666 1.62667,0.16 2.48,0.16 0.82667,0 1.73333,-0.0667 2.72,-0.2 0.6,-0.08 1.2,-0.16 1.8,-0.24 0.21333,-0.0267 0.4,-0.04 0.56,-0.04 1.17333,0 1.76,0.46666 1.76,1.4 0,0.37333 -0.12,0.69333 -0.36,0.96 -0.24,0.24 -0.53333,0.36 -0.88,0.36 -0.26667,0 -0.62667,-0.04 -1.08,-0.12 -0.18667,-0.0533 -0.46667,-0.08 -0.84,-0.08 -1.36,0 -2.04,0.98666 -2.04,2.96 0,3.208 0,12.832 0,16.04 0,2 0.68,3 2.04,3 0.21333,0 0.49333,-0.0267 0.84,-0.08 0.50667,-0.08 0.86667,-0.12 1.08,-0.12 0.82667,0 1.24,0.42666 1.24,1.28 0,0.96 -0.58667,1.44 -1.76,1.44 0.04,0 -0.24,0 -0.28,0 -0.10667,-0.0267 -0.2,-0.04 -0.28,-0.04 0,0 -2.08,-0.32 -2.08,-0.32 -0.69333,-0.10667 -1.42667,-0.16 -2.2,-0.16 -1.12,0 -2.12,0.0667 -3,0.2 0,0 -1.84,0.28 -1.84,0.28 -0.0533,0 -0.14667,0.0133 -0.28,0.04 0,0 -0.32,0 -0.32,0 -1.14667,0 -1.72,-0.48 -1.72,-1.44 0,-0.85334 0.41333,-1.28 1.24,-1.28 0.13333,0 0.49333,0.0267 1.08,0.08 0.29333,0.08 0.57333,0.12 0.84,0.12 1.36,0 2.04,-1 2.04,-3 0,0 0,-16.04 0,-16.04 z"
           inkscape:original-d="m 119.42875,700.00206 q 0,-2.96 -2.04,-2.96 -0.56,0 -0.84,0.08 -0.64,0.12 -1.08,0.12 -0.52,0 -0.88,-0.36 -0.36,-0.4 -0.36,-0.96 0,-1.4 1.76,-1.4 0.24,0 0.56,0.04 l 2.12,0.28 q 1.2,0.16 2.48,0.16 1.24,0 2.72,-0.2 l 1.8,-0.24 q 0.32,-0.04 0.56,-0.04 1.76,0 1.76,1.4 0,0.56 -0.36,0.96 -0.36,0.36 -0.88,0.36 -0.4,0 -1.08,-0.12 -0.28,-0.08 -0.84,-0.08 -2.04,0 -2.04,2.96 l 0,16.04 q 0,3 2.04,3 0.32,0 0.84,-0.08 0.76,-0.12 1.08,-0.12 1.24,0 1.24,1.28 0,1.44 -1.76,1.44 -0.08,0 -0.28,0 -0.16,-0.04 -0.28,-0.04 l -2.08,-0.32 q -1.04,-0.16 -2.2,-0.16 -1.68,0 -3,0.2 l -1.84,0.28 q -0.08,0 -0.28,0.04 -0.2,0 -0.32,0 -1.72,0 -1.72,-1.44 0,-1.28 1.24,-1.28 0.2,0 1.08,0.08 0.44,0.12 0.84,0.12 2.04,0 2.04,-3 l 0,-16.04 z" />
        <path
           style="fill:#913a00;fill-opacity:1"
           inkscape:connector-curvature="0"
           id="path4264"
           d="m 142.0922,693.10826 c 2.66667,0 5.08,1 7.24,3 -0.0533,-0.37334 -0.08,-0.58667 -0.08,-0.64 -0.0533,-0.53334 -0.08,-0.82667 -0.08,-0.88 0,-0.88 0.44,-1.32 1.32,-1.32 0.96,0 1.44,0.57333 1.44,1.72 0,0.37333 -0.0133,0.65333 -0.04,0.84 -0.01,0.0662 -0.27034,1.85379 -0.28,1.92 -0.08,0.56 -0.12,1.16 -0.12,1.8 0,0.50666 0.0533,1.58666 0.16,3.24 0,0 0,0.12 0,0.36 0,1.2 -0.49333,1.8 -1.48,1.8 -0.93333,0 -1.4,-0.65334 -1.4,-1.96 0,0 0,-1.2 0,-1.2 0,-1.84 -0.61333,-3.29334 -1.84,-4.36 -1.2,-1.06667 -2.82667,-1.6 -4.88,-1.6 -2.58666,0 -4.61332,1 -6.07999,3 -1.46667,2 -2.2,4.74666 -2.2,8.24 0,3.70666 0.74667,6.6 2.24,8.68 1.52,2.08 3.61333,3.12 6.27999,3.12 2.05333,0 3.64,-0.6 4.76,-1.8 1.12,-1.2 1.68,-2.90667 1.68,-5.12 0,-0.90667 -0.16,-1.53334 -0.48,-1.88 -0.29333,-0.37334 -0.82667,-0.56 -1.6,-0.56 -0.21333,0 -0.52,0.0133 -0.92,0.04 -0.4,0.0267 -0.70667,0.04 -0.92,0.04 -1.28,0 -1.92,-0.45334 -1.92,-1.36 0,-0.93334 0.54667,-1.4 1.64,-1.4 0.34667,0 0.73333,0.0267 1.16,0.08 1.68,0.21333 3.02667,0.32 4.04,0.32 1.30667,0 2.69333,-0.12 4.16,-0.36 0.32,-0.0533 0.68,-0.08 1.08,-0.08 1.06667,0 1.6,0.44 1.6,1.32 0,0.37333 -0.14667,0.69333 -0.44,0.96 -0.26667,0.26666 -0.58667,0.4 -0.96,0.4 -0.32,0 -0.56,-0.0133 -0.72,-0.04 -0.0533,0 -0.14667,-0.0133 -0.28,-0.04 -0.0267,0 -0.34667,0 -0.32,0 -1.17333,0 -1.76,1.30666 -1.76,3.92 0,0 0,3.2 0,3.2 0,0.69333 0.0267,1.32 0.08,1.88 0.0533,0.56 0.08,1 0.08,1.32 0,1.09333 -0.48,1.64 -1.44,1.64 -0.93333,0 -1.4,-0.46667 -1.4,-1.4 0,0 0.0267,-0.32 0.08,-0.96 0.0267,-0.24 0.0533,-0.65334 0.08,-1.24 -0.61333,0.82666 -1.09333,1.4 -1.44,1.72 -1.54667,1.38666 -3.69333,2.08 -6.44,2.08 -3.43999,0 -6.21332,-1.28 -8.31999,-3.84 -2.10667,-2.56 -3.16,-5.90667 -3.16,-10.04 0,-4.42667 1.06667,-7.96 3.2,-10.6 2.16,-2.64 5.05333,-3.96 8.67999,-3.96 z"
           inkscape:original-d="m 142.18124,693.80206 q 4,0 7.24,3 -0.08,-0.56 -0.08,-0.64 -0.08,-0.8 -0.08,-0.88 0,-1.32 1.32,-1.32 1.44,0 1.44,1.72 0,0.56 -0.04,0.84 l -0.28,1.92 q -0.12,0.84 -0.12,1.8 0,0.76 0.16,3.24 0,0 0,0.36 0,1.8 -1.48,1.8 -1.4,0 -1.4,-1.96 l 0,-1.2 q 0,-2.76 -1.84,-4.36 -1.8,-1.6 -4.88,-1.6 -3.87999,0 -6.07999,3 -2.2,3 -2.2,8.24 0,5.56 2.24,8.68 2.28,3.12 6.27999,3.12 3.08,0 4.76,-1.8 1.68,-1.8 1.68,-5.12 0,-1.36 -0.48,-1.88 -0.44,-0.56 -1.6,-0.56 -0.32,0 -0.92,0.04 -0.6,0.04 -0.92,0.04 -1.92,0 -1.92,-1.36 0,-1.4 1.64,-1.4 0.52,0 1.16,0.08 2.52,0.32 4.04,0.32 1.96,0 4.16,-0.36 0.48,-0.08 1.08,-0.08 1.6,0 1.6,1.32 0,0.56 -0.44,0.96 -0.4,0.4 -0.96,0.4 -0.48,0 -0.72,-0.04 -0.08,0 -0.28,-0.04 -0.2,0 -0.32,0 -1.76,0 -1.76,3.92 l 0,3.2 q 0,1.04 0.08,1.88 0.08,0.84 0.08,1.32 0,1.64 -1.44,1.64 -1.4,0 -1.4,-1.4 0,0 0.08,-0.96 0.04,-0.36 0.08,-1.24 -0.92,1.24 -1.44,1.72 -2.32,2.08 -6.44,2.08 -5.15999,0 -8.31999,-3.84 -3.16,-3.84 -3.16,-10.04 0,-6.64 3.2,-10.6 3.24,-3.96 8.67999,-3.96 z" />
        <path
           style="fill:#913a00;fill-opacity:1"
           inkscape:connector-curvature="0"
           id="path4266"
           d="m 163.01158,699.30826 c 0,-1.97334 -0.68,-2.96 -2.04,-2.96 -0.37333,0 -0.65333,0.0267 -0.84,0.08 -0.42667,0.08 -0.78667,0.12 -1.08,0.12 -0.34667,0 -0.64,-0.12 -0.88,-0.36 -0.24,-0.26667 -0.36,-0.58667 -0.36,-0.96 0,-0.93334 0.56,-1.4 1.68,-1.4 0.0267,0 0.22667,0.0133 0.6,0.04 4,0.26666 5.86667,0.4 5.6,0.4 0.26667,0 0.4,0 0.4,0 -1.46061,0.0424 11.10061,-0.32243 9.64,-0.28 0.18667,0 0.88,-0.04 2.08,-0.12 0.42667,-0.0267 0.81333,-0.04 1.16,-0.04 1.38667,0 2.08,0.61333 2.08,1.84 0,0.21333 -0.0533,0.89333 -0.16,2.04 -0.08,0.85333 -0.12,1.64 -0.12,2.36 0,0.93333 0.0267,1.58666 0.08,1.96 0.10667,0.77333 0.16,1.34666 0.16,1.72 0,1.01333 -0.48,1.52 -1.44,1.52 -0.96,0 -1.44,-0.70667 -1.44,-2.12 0,0 0,-2.08 0,-2.08 0,-2.24 -0.46667,-3.56 -1.4,-3.96 -0.69333,-0.29334 -2.48,-0.44 -5.36,-0.44 -1.89333,0 -3.01333,0.04 -3.36,0.12 -1.14667,0.29333 -1.72,1.09333 -1.72,2.4 0,0 0,1.8 0,1.8 0,-0.08 0,0.8 0,0.88 -0.0267,0.37333 -0.04,0.64 -0.04,0.8 0,0 0,0.52 0,0.52 0,1.06666 0.24,1.68 0.72,1.84 0.18667,0.0533 0.50667,0.08 0.96,0.08 0.54667,0 1.09333,0 1.64,0 1.68,0 2.52,-0.57334 2.52,-1.72 0,-0.32 -0.04,-0.73334 -0.12,-1.24 -0.08,-0.50667 -0.12,-0.96 -0.12,-1.36 0,-1.06667 0.48,-1.6 1.44,-1.6 0.96,0 1.44,0.57333 1.44,1.72 0,0.21333 -0.0933,1.04 -0.28,2.48 -0.16,1.22666 -0.24,2.30666 -0.24,3.24 0,0.53333 0.0533,1.48 0.16,2.84 0.0267,0.21333 0.0933,0.68 0.2,1.4 0.08,0.58666 0.12,1.05333 0.12,1.4 0,0.96 -0.48,1.44 -1.44,1.44 -0.93333,0 -1.4,-0.56 -1.4,-1.68 0,-0.29334 0.0267,-0.72 0.08,-1.28 0.08,-0.56 0.12,-0.98667 0.12,-1.28 0,-1.14667 -0.76,-1.72 -2.28,-1.72 -0.0261,0 -1.77391,0 -1.8,0 -0.77333,0 -1.25333,0.13333 -1.44,0.4 -0.16,0.26666 -0.24,0.84 -0.24,1.72 0,0 0,2.48 0,2.48 0,0.42666 0.0133,1 0.04,1.72 0.0267,0.88 0.04,1.46666 0.04,1.76 0.0267,1.06666 0.24,1.73333 0.64,2 0.29333,0.18666 0.98667,0.28 2.08,0.28 0,0 5.44,0 5.44,0 1.57333,0 2.65333,-0.22667 3.24,-0.68 0.58667,-0.48 0.88,-1.36 0.88,-2.64 0,-0.4 -0.0267,-0.98667 -0.08,-1.76 -0.0267,-0.8 -0.04,-1.4 -0.04,-1.8 0,-1.2 0.48,-1.8 1.44,-1.8 1.01333,0 1.52,0.61333 1.52,1.84 0,0.48 -0.0267,1.21333 -0.08,2.2 -0.0533,0.98666 -0.08,1.72 -0.08,2.2 0,0.37333 0.0133,0.93333 0.04,1.68 0.0533,0.72 0.08,1.26666 0.08,1.64 0,1.25333 -0.61333,1.88 -1.84,1.88 -0.29333,0 -0.76,-0.0267 -1.4,-0.08 -0.32,-0.0267 -0.90667,-0.04 -1.76,-0.04 0.18667,0 -0.85333,-0.0267 -3.12,-0.08 -2.26667,-0.0533 -4.22667,-0.08 -5.88,-0.08 -2.50667,0 -4.96,0.08 -7.36,0.24 -0.10667,0 -0.22667,0.0133 -0.36,0.04 -0.0533,0 -0.29333,0 -0.24,0 -1.12,0 -1.68,-0.48 -1.68,-1.44 0,-0.85334 0.41333,-1.28 1.24,-1.28 0.13333,0 0.49333,0.0267 1.08,0.08 0.29333,0.08 0.57333,0.12 0.84,0.12 1.36,0 2.04,-1 2.04,-3 0,0 0,-16.04 0,-16.04 z"
           inkscape:original-d="m 163.10062,700.00206 q 0,-2.96 -2.04,-2.96 -0.56,0 -0.84,0.08 -0.64,0.12 -1.08,0.12 -0.52,0 -0.88,-0.36 -0.36,-0.4 -0.36,-0.96 0,-1.4 1.68,-1.4 0.04,0 0.6,0.04 6,0.4 5.6,0.4 0.4,0 0.4,0 l 9.64,-0.28 q 0.28,0 2.08,-0.12 0.64,-0.04 1.16,-0.04 2.08,0 2.08,1.84 0,0.32 -0.16,2.04 -0.12,1.28 -0.12,2.36 0,1.4 0.08,1.96 0.16,1.16 0.16,1.72 0,1.52 -1.44,1.52 -1.44,0 -1.44,-2.12 l 0,-2.08 q 0,-3.36 -1.4,-3.96 -1.04,-0.44 -5.36,-0.44 -2.84,0 -3.36,0.12 -1.72,0.44 -1.72,2.4 l 0,1.8 q 0,0.32 0,0.88 -0.04,0.56 -0.04,0.8 l 0,0.52 q 0,1.6 0.72,1.84 0.28,0.08 0.96,0.08 l 1.64,0 q 2.52,0 2.52,-1.72 0,-0.48 -0.12,-1.24 -0.12,-0.76 -0.12,-1.36 0,-1.6 1.44,-1.6 1.44,0 1.44,1.72 0,0.32 -0.28,2.48 -0.24,1.84 -0.24,3.24 0,0.8 0.16,2.84 0.04,0.32 0.2,1.4 0.12,0.88 0.12,1.4 0,1.44 -1.44,1.44 -1.4,0 -1.4,-1.68 0,-0.44 0.08,-1.28 0.12,-0.84 0.12,-1.28 0,-1.72 -2.28,-1.72 l -1.8,0 q -1.16,0 -1.44,0.4 -0.24,0.4 -0.24,1.72 l 0,2.48 q 0,0.64 0.04,1.72 0.04,1.32 0.04,1.76 0.04,1.6 0.64,2 0.44,0.28 2.08,0.28 l 5.44,0 q 2.36,0 3.24,-0.68 0.88,-0.72 0.88,-2.64 0,-0.6 -0.08,-1.76 -0.04,-1.2 -0.04,-1.8 0,-1.8 1.44,-1.8 1.52,0 1.52,1.84 0,0.72 -0.08,2.2 -0.08,1.48 -0.08,2.2 0,0.56 0.04,1.68 0.08,1.08 0.08,1.64 0,1.88 -1.84,1.88 -0.44,0 -1.4,-0.08 -0.48,-0.04 -1.76,-0.04 0.28,0 -3.12,-0.08 -3.4,-0.08 -5.88,-0.08 -3.76,0 -7.36,0.24 -0.16,0 -0.36,0.04 -0.2,0 -0.24,0 -1.68,0 -1.68,-1.44 0,-1.28 1.24,-1.28 0.2,0 1.08,0.08 0.44,0.12 0.84,0.12 2.04,0 2.04,-3 l 0,-16.04 z" />
        <path
           style="fill:#913a00;fill-opacity:1"
           inkscape:connector-curvature="0"
           id="path4268"
           d="m 205.4847,705.94826 c -0.77333,0.37333 -1.76,0.69333 -2.96,0.96 1.57333,0.29333 2.65333,0.88 3.24,1.76 0.61333,0.88 0.92,2.33333 0.92,4.36 0,0.61333 0,1.22666 0,1.84 -0.0267,0.10666 -0.04,0.26666 -0.04,0.48 0,1.92 0.61333,2.88 1.84,2.88 1.25333,0 1.88,-1.14667 1.88,-3.44 0,-0.8 0,-1.2 0,-1.2 0,0 -0.04,-1 -0.04,-1 0,0 0,-0.18667 0,-0.56 0,-0.77334 0.0533,-1.30667 0.16,-1.6 0.21333,-0.45334 0.62667,-0.68 1.24,-0.68 0.96,0 1.44,0.56 1.44,1.68 0,0.0267 -0.0133,0.32 -0.04,0.88 0.001,-0.0244 -0.0412,0.86435 -0.04,0.84 -0.0267,0.56 -0.04,0.92 -0.04,1.08 0,-0.0167 0,1.01666 0,1 0.0267,0.16 0.04,0.4 0.04,0.72 0,1.54666 -0.44,2.76 -1.32,3.64 -0.85333,0.85333 -2.05333,1.28 -3.6,1.28 -3.14667,0 -4.72,-1.58667 -4.72,-4.76 0,-0.0293 0,-1.17073 0,-1.2 9.4e-4,-0.032 0.0391,-1.328 0.04,-1.36 0,-0.29334 0,-0.58667 0,-0.88 0,-1.78667 -0.34667,-2.96 -1.04,-3.52 -0.66667,-0.58667 -2.06667,-0.88 -4.2,-0.88 -1.24,0 -2.48,0 -3.72,0 -0.85333,0 -1.28,0.52 -1.28,1.56 0,0 0,3.08 0,3.08 0,1.97333 0.0267,3.09333 0.08,3.36 0.24,1.33333 0.90667,2 2,2 0.37333,0 0.65333,-0.0267 0.84,-0.08 0.45333,-0.08 0.8,-0.12 1.04,-0.12 0.85333,0 1.28,0.45333 1.28,1.36 0,0.96 -0.57333,1.44 -1.72,1.44 0,0 -0.2,-0.0267 -0.6,-0.08 0,0 -2.16,-0.28 -2.16,-0.28 -0.82667,-0.10667 -1.56,-0.16 -2.2,-0.16 -0.8,0 -1.73333,0.0667 -2.8,0.2 0,0 -1.92,0.24 -1.92,0.24 -0.42667,0.0533 -0.62667,0.08 -0.6,0.08 -1.14667,0 -1.72,-0.48 -1.72,-1.44 0,-0.85334 0.41333,-1.28 1.24,-1.28 0.13333,0 0.49333,0.0267 1.08,0.08 0.29333,0.08 0.57333,0.12 0.84,0.12 1.36,0 2.04,-1 2.04,-3 0,0 0,-16.04 0,-16.04 0,-2 -0.68,-3 -2.04,-3 -0.21333,0 -0.53333,0.04 -0.96,0.12 -0.42667,0.0533 -0.74667,0.08 -0.96,0.08 -0.34667,0 -0.64,-0.12 -0.88,-0.36 -0.24,-0.26667 -0.36,-0.57334 -0.36,-0.92 0,-0.93334 0.58667,-1.4 1.76,-1.4 0.10667,0 0.29333,0.0133 0.56,0.04 0,0 2.04,0.2 2.04,0.2 0.53333,0.0533 1.2,0.08 2,0.08 0.82667,0 1.74667,-0.0267 2.76,-0.08 -0.0199,0.001 3.05987,-0.16105 3.04,-0.16 1.01333,-0.0533 1.94667,-0.08 2.8,-0.08 5.86667,0 8.8,2.24 8.8,6.72 0,2.64 -1.01333,4.44 -3.04,5.4 z m -11.08,-0.36 c -0.0432,0 3.80322,0 3.76,0 2.24,0 3.92,-0.32 5.04,-0.96 1.36,-0.77334 2.04,-2.06667 2.04,-3.88 0,-3.04 -2.08,-4.56 -6.24,-4.56 -2.21333,0 -3.72,0.17333 -4.52,0.52 -0.77333,0.32 -1.17333,0.97333 -1.2,1.96 -9.7e-4,0.0309 -0.039,1.24908 -0.04,1.28 0,0 0,4.6 0,4.6 0,0.45333 0.08,0.74666 0.24,0.88 0.16,0.10666 0.46667,0.16 0.92,0.16 z"
           inkscape:original-d="m 205.57374,706.64206 q -1.16,0.56 -2.96,0.96 2.36,0.44 3.24,1.76 0.92,1.32 0.92,4.36 l 0,1.84 q -0.04,0.16 -0.04,0.48 0,2.88 1.84,2.88 1.88,0 1.88,-3.44 0,-1.2 0,-1.2 l -0.04,-1 q 0,0 0,-0.56 0,-1.16 0.16,-1.6 0.32,-0.68 1.24,-0.68 1.44,0 1.44,1.68 0,0.04 -0.04,0.88 l -0.04,0.84 q -0.04,0.84 -0.04,1.08 l 0,1 q 0.04,0.24 0.04,0.72 0,2.32 -1.32,3.64 -1.28,1.28 -3.6,1.28 -4.72,0 -4.72,-4.76 l 0,-1.2 0.04,-1.36 0,-0.88 q 0,-2.68 -1.04,-3.52 -1,-0.88 -4.2,-0.88 l -3.72,0 q -1.28,0 -1.28,1.56 l 0,3.08 q 0,2.96 0.08,3.36 0.36,2 2,2 0.56,0 0.84,-0.08 0.68,-0.12 1.04,-0.12 1.28,0 1.28,1.36 0,1.44 -1.72,1.44 0,0 -0.6,-0.08 l -2.16,-0.28 q -1.24,-0.16 -2.2,-0.16 -1.2,0 -2.8,0.2 l -1.92,0.24 q -0.64,0.08 -0.6,0.08 -1.72,0 -1.72,-1.44 0,-1.28 1.24,-1.28 0.2,0 1.08,0.08 0.44,0.12 0.84,0.12 2.04,0 2.04,-3 l 0,-16.04 q 0,-3 -2.04,-3 -0.32,0 -0.96,0.12 -0.64,0.08 -0.96,0.08 -0.52,0 -0.88,-0.36 -0.36,-0.4 -0.36,-0.92 0,-1.4 1.76,-1.4 0.16,0 0.56,0.04 l 2.04,0.2 q 0.8,0.08 2,0.08 1.24,0 2.76,-0.08 l 3.04,-0.16 q 1.52,-0.08 2.8,-0.08 8.8,0 8.8,6.72 0,3.96 -3.04,5.4 z m -11.08,-0.36 3.76,0 q 3.36,0 5.04,-0.96 2.04,-1.16 2.04,-3.88 0,-4.56 -6.24,-4.56 -3.32,0 -4.52,0.52 -1.16,0.48 -1.2,1.96 l -0.04,1.28 0,4.6 q 0,0.68 0.24,0.88 0.24,0.16 0.92,0.16 z" />
      </g>
      <path
         style="color:#000000;font-style:normal;font-variant:normal;font-weight:normal;font-stretch:normal;font-size:medium;line-height:normal;font-family:sans-serif;text-indent:0;text-align:start;text-decoration:none;text-decoration-line:none;text-decoration-style:solid;text-decoration-color:#000000;letter-spacing:normal;word-spacing:normal;text-transform:none;direction:ltr;block-progression:tb;writing-mode:lr-tb;baseline-shift:baseline;text-anchor:start;white-space:normal;clip-rule:nonzero;display:inline;overflow:visible;visibility:visible;opacity:1;isolation:auto;mix-blend-mode:normal;color-interpolation:sRGB;color-interpolation-filters:linearRGB;solid-color:#000000;solid-opacity:1;fill:#ffffff;fill-opacity:1;fill-rule:nonzero;stroke:none;stroke-width:9.99999905;stroke-linecap:butt;stroke-linejoin:miter;stroke-miterlimit:4;stroke-dasharray:none;stroke-dashoffset:0;stroke-opacity:1;color-rendering:auto;image-rendering:auto;shape-rendering:auto;text-rendering:auto;enable-background:accumulate"
         d="m 75.897648,781.74191 2e-6,4.76181 -7e-6,4.7804 8.918395,0 0,-0.0186 274.686452,0 0,0.0186 8.91839,10e-6 0,-9.54222 -292.523221,0 z"
         id="rect4326"
         inkscape:connector-curvature="0" />
      <rect
         style="opacity:1;fill:none;fill-opacity:1;stroke:#492c2c;stroke-width:4.91838694;stroke-linecap:butt;stroke-linejoin:miter;stroke-miterlimit:4;stroke-dasharray:none;stroke-dashoffset:0;stroke-opacity:1"
         id="rect4297"
         width="312.80948"
         height="156.40474"
         x="65.595238"
         y="783.65973"
         ry="2.6810477" />
    </g>
  </g>
</svg>
